# xmcd
#
# Track frame offsets:
#	150
#	6580
#	12111
#	36849
#	77123
#	85853
#	104685
#	110929
#	132015
#	154923
#	181363
#	202703
#
# Disc length: 2836 seconds
#
# Revision: 0
# Processed by: cddbd v1.5.2PL0 Copyright (c) Steve Scherf et al.
# Submitted via: EasyCDDAExtractor 16.0.6.1
#
DISCID=980b120c
DTITLE=Βυζ. χορ. Άγιος Ιωάννης Κουκουζέλης - Ορθόδοξοι αίνοι
DYEAR=2004
DGENRE=Βυζ. Εκκλησιαστική
TTITLE0=Μέγαν εύρατο [απολ. Αγίου Δημητρίου]
TTITLE1=Η ηδύφωνος χάρις [απολ. Αγίου Ιωάννου του Κουκουζέλη]
TTITLE2=Υπεραγία Θεοτόκε [στ. Α' και Γ' ωδής μικρού παρακλ. κανόνος]
TTITLE3=Απεστάλη εξ ουρανού [δοξαστικόν εσπ. Ευαγγελισμού]
TTITLE4=Εκ των άνω κατελθών [κάθισμα αναστάσιμον]
TTITLE5=Αντίφωνα αναστάσιμα αναβαθμών
TTITLE6=Κύριε ει και κριτηρίω [αναστάσιμον Αίνων]
TTITLE7=Φανερών εαυτόν [ΙΑ' εωθινόν δοξαστικόν Αθ. Καραμάνη]
TTITLE8=Δόξα σοι τω δείξαντι [στ. δοξολ. του Γρηγορίου πρωτ.]
TTITLE9=Άγιος ο Θεός-Δύναμος
TTITLE10=Σε υμνούμεν-Άξιον εστί [σόλο Μ. Δασκαλάκης]
TTITLE11=Πολυχρονισμός παν. μητρ. Θεσσαλονίκης Ανθίμου
EXTD=
EXTT0=
EXTT1=
EXTT2=
EXTT3=
EXTT4=
EXTT5=
EXTT6=
EXTT7=
EXTT8=
EXTT9=
EXTT10=
EXTT11=
PLAYORDER=
